inDegrees=yes
name=ik_Xsens_quaternion
DataType=double
version=3
OpenSimVersion=4.4-2022-07-23-0e9fedc
endheader
time	pelvis_tilt	pelvis_list	pelvis_rotation	pelvis_tx	pelvis_ty	pelvis_tz	hip_flexion_r	hip_adduction_r	hip_rotation_r	knee_angle_r	knee_angle_r_beta	ankle_angle_r	subtalar_angle_r	mtp_angle_r	hip_flexion_l	hip_adduction_l	hip_rotation_l	knee_angle_l	knee_angle_l_beta	ankle_angle_l	subtalar_angle_l	mtp_angle_l	lumbar_extension	lumbar_bending	lumbar_rotation	arm_flex_r	arm_add_r	arm_rot_r	elbow_flex_r	pro_sup_r	wrist_flex_r	wrist_dev_r	arm_flex_l	arm_add_l	arm_rot_l	elbow_flex_l	pro_sup_l	wrist_flex_l	wrist_dev_l
0	0	0	0	0	0.93	0	0	0	0	1.638000811678142e-38	0	0	0	0	0	0	0	6.507923771274735e-39	-1.384636296119686e-40	0	0	0	0	0	0	1.799737300444888	80.09442307944035	92.34206990093223	-0.1152095151326122	11.26965252799778	0	0	1.193356190620844	-78.17342883707532	157.9748971295083	4.564896426189896	-227.2008318859531	0	0
0.01666666666666667	-2.624231953585922e-28	-2.255878157637681e-23	2.952283900959004e-28	-3.18737892899869e-26	0.93	-1.067351776393589e-22	-4.310455369189608e-35	1.392195346560357e-21	0	0	-1.282786786902571e-18	1.908238773307649e-21	-6.043028170673238e-20	3.994838028288146e-23	-6.718213881918407e-20	2.477887090658953e-28	6.364527213753263e-20	0	-1.266641541399012e-18	1.166456678513439e-18	-4.096944885466192e-22	-4.56663169331274e-23	1.924208160962505e-27	1.149371489418406e-25	-4.339603964420684e-24	1.738782489552158	80.14573539083297	92.40592039502071	-0.1665590519146773	11.14043262606057	-1.752020405880451e-19	-2.316849217957417e-22	1.244056836911898	-78.2033379296623	158.0359820659415	4.589510892565902	-227.2339295819736	1.937752153670534e-22	-8.891761553036471e-23
0.03333333333333333	0	0	0	0	0.93	0	0	0	0	0	4.025236114418312e-41	0	0	0	0	0	0	0	0	0	0	0	0	0	0	1.625602527178343	80.15743201208517	92.51843659886795	-0.2495265196662967	11.07736210713048	0	0	1.299820097207922	-78.2089444889735	158.1115425772263	4.554265797856345	-227.2041039068876	0	0
0.05	0	0	0	0	0.93	0	0	0	0	0	0	0	0	0	0	0	0	0	0	0	0	0	0	0	0	1.519735143723576	80.12579740205993	92.60610861550512	-0.282003797774379	11.0300517575267	0	0	1.302673498942575	-78.18502871609779	158.1906641001569	4.396482094317906	-227.2672330427474	0	0
0.06666666666666667	2.359809111114882e-28	2.657454819880738e-18	-1.477422768064536e-28	-2.740536944462571e-27	0.93	8.782291709092118e-28	4.911439503174179e-42	-3.806704146238423e-27	0	4.208578297517898e-16	7.345354266531066e-18	8.180535752137615e-23	-1.937958873461517e-23	-2.644862753817436e-20	-4.287547218844012e-27	8.000466485417386e-39	-6.030288929877886e-27	4.284509226320563e-16	7.477877652360577e-18	1.147362827820757e-26	-4.031759147538444e-25	1.236554714692908e-19	4.153614693597932e-29	1.566597211993467e-28	-1.688866815776396e-28	0.436440937331216	80.12366879979967	93.65443925076328	-0.3957486916869214	10.95863072325619	6.779874248495811e-21	-1.904145083340718e-20	1.305590354114451	-78.15256790271803	158.3073511995445	4.267597251887818	-227.4060098371108	-3.830903425536812e-20	-5.264434279656094e-22
0.08333333333333333	9.80084080126655e-48	1.262828721442268e-37	-7.350630600949912e-48	-1.313717310304516e-46	0.93	4.379057701015053e-47	4.594144125593695e-49	-1.568134528202648e-46	0	2.426570649309934e-20	-9.992970898102668e-23	3.853847416510828e-42	-9.634618541277069e-43	-1.315446584835696e-39	-1.568134528202648e-46	2.852420090134998e-58	-2.352201792303972e-46	2.426570649309934e-20	-6.591517376157213e-23	4.704403584607944e-46	-2.007212196099389e-44	5.261786339342783e-39	1.837657650237478e-48	7.350630600949912e-48	-7.350630600949912e-48	0.4077058347787512	80.06170350121566	93.64619220337072	-0.4286284307626246	10.94348852306069	3.28861646208924e-40	-9.865849386267719e-40	1.308544932090566	-78.09926134594204	158.3038764247011	4.164663160971788	-227.454176161408	-1.973169877253544e-39	-2.055385288805775e-41
0.1	0	0	0	0	0.93	0	0	0	0	0	4.114230227878006e-38	0	0	0	0	0	0	0	4.114230227878006e-38	0	0	0	0	0	0	0.3619293478191452	79.99085064302729	93.68011695282775	-0.4695665876373326	10.87758678300843	0	0	1.209290337014561	-78.03294395730586	158.3342364798242	4.039713966670008	-227.7140383225583	0	0
0.1166666666666667	0	0	0	0	0.93	0	0	0	0	0	0	0	0	0	0	0	0	0	0	0	0	0	0	0	0	0.2646827841430253	79.93172678037006	93.76275012973846	-0.5438201185578178	10.87718098121314	0	0	1.057276583063356	-77.96052845981059	158.3013863728171	3.940738344183134	-227.964853952572	0	0
0.1333333333333333	0	0	0	0	0.93	0	0	0	0	0	0	0	0	0	0	0	0	0	0	0	0	0	0	0	0	-0.3361733942812077	79.91544403150797	94.39923717953717	-0.6853547044490517	10.87118799075716	0	0	0.2961354025429445	-77.90509116511876	157.6394700520573	3.720116892709692	-228.1448103664882	0	0
0.15	0	0	0	0	0.93	0	0	0	0	0	5.877471754111438e-39	0	0	0	0	0	0	0	5.877471754111438e-39	0	0	0	0	0	0	-0.348695533791698	79.87354769290809	94.40096765596553	-0.777054444045743	10.91066931257035	0	0	0.2395378397471939	-77.86491574575211	157.6668514435097	3.664755120319157	-228.3182270595833	0	0
0.1666666666666667	9.243521298942546e-22	5.396341254106629e-21	9.606712630877158e-23	-1.827993632727301e-22	0.93	-6.081807639108958e-23	-2.155797626639173e-32	-1.868117245573862e-23	5.124161046471912e-17	5.055674446453935e-05	8.808282585252692e-07	-4.542720100209385e-14	-1.774595270064876e-16	1.075056709603097e-13	2.000961350921767e-16	4.390864614212795e-11	1.104863666321182e-10	5.063936150885227e-05	8.823765172043504e-07	2.374196449976392e-13	4.219927227987327e-17	-1.817543224009132e-14	-1.918271663491937e-07	-1.402115460043682e-07	2.080619848006362e-07	-0.3463439065482215	79.81942780508925	94.41302833589161	-0.8713331522083165	10.94999628842153	-2.936873258166827e-15	2.46755254956875e-16	0.2211611832042551	-77.83110281447718	157.6626514654599	3.652183122175451	-228.4046644996436	-8.634067567951299e-17	-3.527294926451508e-21
0.1833333333333333	0	0	0	0	0.93	0	0	0	0	0	0	0	0	0	0	0	0	0	0	0	0	0	0	0	0	-0.3468316958006694	79.78517920874329	94.42067661583999	-0.9887501278434837	11.0224076238241	0	0	0.2024406659814801	-77.80603091280965	157.6579926068196	3.641574941753509	-228.472760598701	0	0
0.2	0	0	0	0	0.93	0	4.594144125593695e-49	0	0	2.426570649309934e-20	5.241540515187501e-23	0	0	0	4.594144125593695e-49	0	0	2.426570649309934e-20	5.241540515187501e-23	0	0	0	0	0	0	-0.3350078882451448	79.74702640426791	94.43444042143824	-1.078023547189154	11.0538135526136	0	0	0.2003010595453218	-77.79235615022189	157.6487452612407	3.640127140745866	-228.4751930530687	0	0
0.2166666666666667	0	0	0	0	0.93	0	0	0	0	0	-5.877471754111438e-39	0	0	0	0	0	0	0	-5.877471754111438e-39	0	0	0	0	0	0	-0.3151313719181021	79.71964290544018	94.45556655426087	-1.201375213707408	11.07910209058636	0	0	0.1975906458513114	-77.78639068653924	157.6387003624292	3.642591342597436	-228.4287469928167	0	0
0.2333333333333333	0	0	0	0	0.93	0	0	0	0	0	-5.877471754111438e-39	0	0	0	0	0	0	0	-5.877471754111438e-39	0	0	0	0	0	0	-0.3144058681778292	79.69574946086662	94.46011354370241	-1.314463299407595	11.10107896204282	0	0	0.205296943931255	-77.77972624999403	157.6254273623343	3.644808466300702	-228.3518126203213	0	0
0.25	0	0	0	0	0.93	0	0	0	0	0	-1.175494350822288e-38	0	0	0	0	0	0	0	-1.175494350822288e-38	0	0	0	0	0	0	-0.3043993506863815	79.65626688452328	94.47094222259744	-1.405597198255962	11.10103519432401	0	0	0.20831486191985	-77.77154670545623	157.6254701731284	3.646466389609754	-228.3036565144283	0	0
0.2666666666666667	0	0	0	0	0.93	0	0	0	0	0	4.114230227878006e-38	0	0	0	0	0	0	0	4.114230227878006e-38	0	0	0	0	0	0	-0.2924645011691891	79.62486129278989	94.48042981717589	-1.498527384603995	11.08208422446084	0	0	0.2186840954403029	-77.76407213883176	157.6278129277738	3.647368015404091	-228.2807261724138	0	0
0.2833333333333333	0	0	0	0	0.93	0	0	0	0	0	0	0	0	0	0	0	0	0	0	0	0	0	0	0	0	-0.2690259285490768	79.58013906233639	94.49800139136171	-1.585641391535576	11.06277568535595	0	0	0.2345525378555929	-77.75113567388662	157.6410450469437	3.647017588262128	-228.3143319288445	0	0
0.3	0	0	0	0	0.93	0	4.594144125593695e-49	0	0	2.426570649309934e-20	-1.489735414903493e-36	0	0	0	4.594144125593695e-49	0	0	2.426570649309934e-20	-1.489735414903493e-36	0	0	0	0	0	0	-0.2592865108131008	79.53410897419974	94.50335592922174	-1.62579379060493	11.03385828101603	0	0	0.2464678507670336	-77.73476702013861	157.6461406285841	3.648870232694059	-228.3432850408277	0	0
0.3166666666666667	0	0	0	0	0.93	0	0	0	0	0	-2.350988701644575e-38	0	0	0	0	0	0	0	-2.350988701644575e-38	0	0	0	0	0	0	-0.2429843734911936	79.47740366076397	94.50961509647696	-1.670436873722496	10.99379956078129	0	0	0.2772821056036708	-77.71821777405866	157.6495439165812	3.647644923405178	-228.3929486727145	0	0
